# MagicaVoxel @ Ephtracy

# group
o 

# material
mtllib weapon1.mtl
usemtl palette

# normals
vn -1 0 0
vn 1 0 0
vn 0 0 1
vn 0 0 -1
vn 0 -1 0
vn 0 1 0

# texcoords
vt 0.767578 0.5
vt 0.787109 0.5
vt 0.791016 0.5
vt 0.794922 0.5
vt 0.814453 0.5
vt 0.818359 0.5
vt 0.830078 0.5
vt 0.833984 0.5
vt 0.837891 0.5
vt 0.845703 0.5
vt 0.849609 0.5
vt 0.853516 0.5
vt 0.861328 0.5
vt 0.865234 0.5
vt 0.994141 0.5

# verts
v -0.2 0 0.5
v -0.2 0 0.4
v -0.2 0 0.2
v -0.2 0 0.1
v -0.2 0.1 0.6
v -0.2 0.1 0.5
v -0.2 0.1 0.4
v -0.2 0.1 0.2
v -0.2 0.1 0.1
v -0.2 0.1 0
v -0.2 0.2 0.7
v -0.2 0.2 0.6
v -0.2 0.2 0.5
v -0.2 0.3 1
v -0.2 0.3 0.7
v -0.2 0.3 0.6
v -0.2 0.3 0.4
v -0.2 0.3 0.2
v -0.2 0.3 0.1
v -0.2 0.4 1.1
v -0.2 0.4 1
v -0.2 0.4 0.8
v -0.2 0.4 0.6
v -0.2 0.4 0.5
v -0.2 0.4 0.4
v -0.2 0.4 0.2
v -0.2 0.4 0.1
v -0.2 0.4 0
v -0.2 0.5 2
v -0.2 0.5 1.3
v -0.2 0.5 1.1
v -0.2 0.5 1
v -0.2 0.5 0.8
v -0.2 0.5 0.6
v -0.2 0.5 0.5
v -0.2 0.5 0.4
v -0.2 0.5 0.2
v -0.2 0.5 0.1
v -0.2 0.6 2
v -0.2 0.6 1.3
v -0.2 0.6 1.1
v -0.2 0.6 1
v -0.2 0.6 0.5
v -0.2 0.6 0.4
v -0.2 0.7 2
v -0.2 0.7 0.5
v -0.1 0 0.6
v -0.1 0 0.5
v -0.1 0 0.1
v -0.1 0 0
v -0.1 0.1 0.7
v -0.1 0.1 0.6
v -0.1 0.1 0.5
v -0.1 0.1 0.1
v -0.1 0.1 0
v -0.1 0.2 0.7
v -0.1 0.2 0.6
v -0.1 0.3 1.1
v -0.1 0.3 1
v -0.1 0.4 2
v -0.1 0.4 1.6
v -0.1 0.4 1.3
v -0.1 0.4 1.1
v -0.1 0.4 1
v -0.1 0.5 2
v -0.1 0.5 1.6
v -0.1 0.5 1.3
v -0.1 0.5 1.1
v -0.1 0.5 1
v -0.1 0.5 0.9
v -0.1 0.5 0.8
v -0.1 0.5 0.7
v -0.1 0.5 0.6
v -0.1 0.5 0.5
v -0.1 0.6 1
v -0.1 0.6 0.9
v -0.1 0.6 0.8
v -0.1 0.6 0.7
v -0.1 0.6 0.6
v -0.1 0.6 0.5
v -0.1 0.6 0.4
v -0.1 0.7 2
v -0.1 0.7 1.8
v -0.1 0.7 1.3
v -0.1 0.7 1.1
v -0.1 0.7 0.5
v -0.1 0.7 0.4
v -0.1 0.8 2
v -0.1 0.8 1.8
v -0.1 0.8 1.3
v -0.1 0.8 1.1
v 0 0 0.5
v 0 0 0.4
v 0 0 0.3
v 0 0 0.2
v 0 0 0.1
v 0 0.1 0.5
v 0 0.1 0.4
v 0 0.1 0.3
v 0 0.1 0.2
v 0 0.1 0.1
v 0 0.2 0.7
v 0 0.2 0.6
v 0 0.2 0.1
v 0 0.2 0
v 0 0.3 0.7
v 0 0.3 0.6
v 0 0.3 0.1
v 0 0.3 0
v 0 0.4 0.3
v 0 0.4 0.2
v 0 0.5 2
v 0 0.5 1.9
v 0 0.5 0.3
v 0 0.5 0.2
v 0 0.6 2
v 0 0.6 1.9
v 0 0.7 2
v 0 0.7 1.9
v -0.1 0 0.5
v -0.1 0 0.4
v -0.1 0 0.3
v -0.1 0 0.2
v -0.1 0 0.1
v -0.1 0.1 0.5
v -0.1 0.1 0.4
v -0.1 0.1 0.3
v -0.1 0.1 0.2
v -0.1 0.1 0.1
v -0.1 0.2 0.7
v -0.1 0.2 0.6
v -0.1 0.2 0.1
v -0.1 0.2 0
v -0.1 0.3 0.7
v -0.1 0.3 0.6
v -0.1 0.3 0.1
v -0.1 0.3 0
v -0.1 0.4 0.3
v -0.1 0.4 0.2
v -0.1 0.5 2
v -0.1 0.5 1.9
v -0.1 0.5 0.3
v -0.1 0.5 0.2
v -0.1 0.6 2
v -0.1 0.6 1.9
v -0.1 0.7 2
v -0.1 0.7 1.9
v 0 0 0.6
v 0 0 0.5
v 0 0 0.1
v 0 0 0
v 0 0.1 0.7
v 0 0.1 0.6
v 0 0.1 0.5
v 0 0.1 0.1
v 0 0.1 0
v 0 0.2 0.7
v 0 0.2 0.6
v 0 0.3 1.1
v 0 0.3 1
v 0 0.4 2
v 0 0.4 1.6
v 0 0.4 1.3
v 0 0.4 1.1
v 0 0.4 1
v 0 0.5 2
v 0 0.5 1.9
v 0 0.5 1.6
v 0 0.5 1.5
v 0 0.5 1.4
v 0 0.5 1.3
v 0 0.5 1.1
v 0 0.5 1
v 0 0.5 0.9
v 0 0.5 0.8
v 0 0.5 0.7
v 0 0.5 0.6
v 0 0.5 0.5
v 0 0.6 1
v 0 0.6 0.9
v 0 0.6 0.8
v 0 0.6 0.7
v 0 0.6 0.6
v 0 0.6 0.5
v 0 0.6 0.4
v 0 0.7 2
v 0 0.7 1.8
v 0 0.7 1.3
v 0 0.7 1.1
v 0 0.7 0.5
v 0 0.7 0.4
v 0 0.8 2
v 0 0.8 1.8
v 0 0.8 1.3
v 0 0.8 1.1
v 0.1 0 0.5
v 0.1 0 0.4
v 0.1 0 0.2
v 0.1 0 0.1
v 0.1 0.1 0.6
v 0.1 0.1 0.5
v 0.1 0.1 0.4
v 0.1 0.1 0.2
v 0.1 0.1 0.1
v 0.1 0.1 0
v 0.1 0.2 0.7
v 0.1 0.2 0.6
v 0.1 0.2 0.5
v 0.1 0.2 0.1
v 0.1 0.2 0
v 0.1 0.3 1
v 0.1 0.3 0.9
v 0.1 0.3 0.7
v 0.1 0.3 0.6
v 0.1 0.3 0.5
v 0.1 0.3 0.4
v 0.1 0.3 0.2
v 0.1 0.3 0.1
v 0.1 0.4 1.1
v 0.1 0.4 1
v 0.1 0.4 0.9
v 0.1 0.4 0.7
v 0.1 0.4 0.6
v 0.1 0.4 0.5
v 0.1 0.4 0.4
v 0.1 0.4 0.2
v 0.1 0.4 0.1
v 0.1 0.4 0
v 0.1 0.5 2
v 0.1 0.5 1.9
v 0.1 0.5 1.5
v 0.1 0.5 1.4
v 0.1 0.5 1.1
v 0.1 0.5 1
v 0.1 0.5 0.5
v 0.1 0.5 0.4
v 0.1 0.5 0.1
v 0.1 0.6 2
v 0.1 0.6 1.9
v 0.1 0.6 1.5
v 0.1 0.6 1.4
v 0.1 0.6 1
v 0.1 0.6 0.5
v 0.1 0.6 0.4
v 0.1 0.7 2
v 0.1 0.7 0.5
v -0.2 0.5 2
v -0.2 0.6 2
v -0.2 0.7 2
v -0.1 0.4 2
v -0.1 0.5 2
v -0.1 0.6 2
v -0.1 0.7 2
v -0.1 0.8 2
v 0 0.4 2
v 0 0.5 2
v 0 0.6 2
v 0 0.7 2
v 0 0.8 2
v 0.1 0.5 2
v 0.1 0.6 2
v 0.1 0.7 2
v -0.1 0.5 1.9
v -0.1 0.6 1.9
v -0.1 0.7 1.9
v 0 0.5 1.9
v 0 0.6 1.9
v 0 0.7 1.9
v -0.2 0.4 1.1
v -0.2 0.5 1.1
v -0.1 0.3 1.1
v -0.1 0.4 1.1
v -0.1 0.5 1.1
v 0 0.3 1.1
v 0 0.4 1.1
v 0 0.5 1.1
v 0.1 0.4 1.1
v 0.1 0.5 1.1
v -0.2 0.3 1
v -0.2 0.4 1
v -0.1 0.3 1
v -0.1 0.4 1
v 0 0.3 1
v 0 0.4 1
v 0.1 0.3 1
v 0.1 0.4 1
v -0.2 0.2 0.7
v -0.2 0.3 0.7
v -0.1 0.1 0.7
v -0.1 0.2 0.7
v -0.1 0.3 0.7
v 0 0.1 0.7
v 0 0.2 0.7
v 0 0.3 0.7
v 0.1 0.2 0.7
v 0.1 0.3 0.7
v -0.2 0.1 0.6
v -0.2 0.2 0.6
v -0.1 0 0.6
v -0.1 0.1 0.6
v -0.1 0.2 0.6
v 0 0 0.6
v 0 0.1 0.6
v 0 0.2 0.6
v 0.1 0.1 0.6
v 0.1 0.2 0.6
v -0.2 0 0.5
v -0.2 0.1 0.5
v -0.2 0.5 0.5
v -0.2 0.6 0.5
v -0.1 0 0.5
v -0.1 0.1 0.5
v -0.1 0.5 0.5
v -0.1 0.6 0.5
v 0 0 0.5
v 0 0.1 0.5
v 0 0.5 0.5
v 0 0.6 0.5
v 0.1 0 0.5
v 0.1 0.1 0.5
v 0.1 0.5 0.5
v 0.1 0.6 0.5
v -0.1 0 0.4
v -0.1 0.1 0.4
v 0 0 0.4
v 0 0.1 0.4
v -0.2 0.3 0.2
v -0.2 0.4 0.2
v -0.1 0.4 0.2
v -0.1 0.5 0.2
v 0 0.4 0.2
v 0 0.5 0.2
v 0.1 0.3 0.2
v 0.1 0.4 0.2
v -0.2 0.1 0.1
v -0.2 0.3 0.1
v -0.1 0 0.1
v -0.1 0.1 0.1
v -0.1 0.2 0.1
v -0.1 0.3 0.1
v 0 0 0.1
v 0 0.1 0.1
v 0 0.2 0.1
v 0 0.3 0.1
v 0.1 0.1 0.1
v 0.1 0.2 0.1
v 0.1 0.3 0.1
v -0.1 0.7 1.1
v -0.1 0.8 1.1
v 0 0.7 1.1
v 0 0.8 1.1
v -0.2 0.5 1
v -0.2 0.6 1
v -0.1 0.5 1
v -0.1 0.6 1
v 0 0.5 1
v 0 0.6 1
v 0.1 0.5 1
v 0.1 0.6 1
v -0.2 0.2 0.6
v -0.2 0.3 0.6
v -0.1 0.2 0.6
v -0.1 0.3 0.6
v 0 0.2 0.6
v 0 0.3 0.6
v 0.1 0.2 0.6
v 0.1 0.3 0.6
v -0.2 0.1 0.5
v -0.2 0.2 0.5
v -0.2 0.6 0.5
v -0.2 0.7 0.5
v -0.1 0 0.5
v -0.1 0.1 0.5
v -0.1 0.2 0.5
v -0.1 0.6 0.5
v -0.1 0.7 0.5
v 0 0 0.5
v 0 0.1 0.5
v 0 0.6 0.5
v 0 0.7 0.5
v 0.1 0.1 0.5
v 0.1 0.2 0.5
v 0.1 0.6 0.5
v 0.1 0.7 0.5
v -0.2 0.3 0.4
v -0.2 0.4 0.4
v -0.2 0.5 0.4
v -0.2 0.6 0.4
v -0.1 0.6 0.4
v -0.1 0.7 0.4
v 0 0.6 0.4
v 0 0.7 0.4
v 0.1 0.3 0.4
v 0.1 0.4 0.4
v 0.1 0.5 0.4
v 0.1 0.6 0.4
v -0.1 0 0.3
v -0.1 0.1 0.3
v -0.1 0.4 0.3
v -0.1 0.5 0.3
v 0 0 0.3
v 0 0.1 0.3
v 0 0.4 0.3
v 0 0.5 0.3
v -0.2 0 0.1
v -0.2 0.1 0.1
v -0.2 0.4 0.1
v -0.2 0.5 0.1
v -0.1 0 0.1
v -0.1 0.1 0.1
v -0.1 0.4 0.1
v -0.1 0.5 0.1
v 0 0 0.1
v 0 0.1 0.1
v 0.1 0 0.1
v 0.1 0.1 0.1
v 0.1 0.4 0.1
v 0.1 0.5 0.1
v -0.2 0.1 0
v -0.2 0.4 0
v -0.1 0 0
v -0.1 0.1 0
v -0.1 0.2 0
v -0.1 0.3 0
v -0.1 0.4 0
v 0 0 0
v 0 0.1 0
v 0 0.2 0
v 0 0.3 0
v 0.1 0.1 0
v 0.1 0.2 0
v 0.1 0.4 0
v -0.1 0 0.6
v 0 0 0.6
v -0.2 0 0.5
v -0.1 0 0.5
v 0 0 0.5
v 0.1 0 0.5
v -0.2 0 0.4
v -0.1 0 0.4
v 0 0 0.4
v 0.1 0 0.4
v -0.1 0 0.3
v 0 0 0.3
v -0.2 0 0.2
v -0.1 0 0.2
v 0 0 0.2
v 0.1 0 0.2
v -0.2 0 0.1
v -0.1 0 0.1
v 0 0 0.1
v 0.1 0 0.1
v -0.1 0 0
v 0 0 0
v -0.1 0.1 0.7
v 0 0.1 0.7
v -0.2 0.1 0.6
v -0.1 0.1 0.6
v 0 0.1 0.6
v 0.1 0.1 0.6
v -0.2 0.1 0.5
v -0.1 0.1 0.5
v 0 0.1 0.5
v 0.1 0.1 0.5
v -0.2 0.1 0.1
v -0.1 0.1 0.1
v 0 0.1 0.1
v 0.1 0.1 0.1
v -0.2 0.1 0
v -0.1 0.1 0
v 0 0.1 0
v 0.1 0.1 0
v -0.2 0.2 0.7
v -0.1 0.2 0.7
v 0 0.2 0.7
v 0.1 0.2 0.7
v -0.2 0.2 0.6
v -0.1 0.2 0.6
v 0 0.2 0.6
v 0.1 0.2 0.6
v -0.1 0.3 1.1
v 0 0.3 1.1
v -0.2 0.3 1
v -0.1 0.3 1
v 0 0.3 1
v 0.1 0.3 1
v 0 0.3 0.9
v 0.1 0.3 0.9
v -0.2 0.3 0.7
v -0.1 0.3 0.7
v 0 0.3 0.7
v 0.1 0.3 0.7
v -0.2 0.3 0.6
v -0.1 0.3 0.6
v 0 0.3 0.6
v 0.1 0.3 0.6
v -0.1 0.3 0.5
v 0 0.3 0.5
v 0.1 0.3 0.5
v -0.2 0.3 0.4
v 0.1 0.3 0.4
v -0.2 0.3 0.2
v 0.1 0.3 0.2
v -0.2 0.3 0.1
v -0.1 0.3 0.1
v 0 0.3 0.1
v 0.1 0.3 0.1
v -0.1 0.3 0
v 0 0.3 0
v -0.1 0.4 2
v 0 0.4 2
v -0.1 0.4 1.6
v 0 0.4 1.6
v -0.1 0.4 1.3
v 0 0.4 1.3
v -0.2 0.4 1.1
v -0.1 0.4 1.1
v 0 0.4 1.1
v 0.1 0.4 1.1
v -0.2 0.4 1
v -0.1 0.4 1
v 0 0.4 1
v 0.1 0.4 1
v -0.2 0.4 0.4
v 0.1 0.4 0.4
v -0.1 0.4 0.3
v 0 0.4 0.3
v -0.2 0.4 0.2
v -0.1 0.4 0.2
v 0 0.4 0.2
v 0.1 0.4 0.2
v -0.2 0.5 2
v -0.1 0.5 2
v 0 0.5 2
v 0.1 0.5 2
v 0 0.5 1.9
v 0.1 0.5 1.9
v -0.1 0.5 1.6
v 0 0.5 1.6
v 0 0.5 1.5
v 0.1 0.5 1.5
v 0 0.5 1.4
v 0.1 0.5 1.4
v -0.2 0.5 1.3
v -0.1 0.5 1.3
v 0 0.5 1.3
v -0.2 0.5 1.1
v -0.1 0.5 1.1
v 0 0.5 1.1
v 0.1 0.5 1.1
v -0.2 0.6 1
v -0.1 0.6 1
v 0 0.6 1
v 0.1 0.6 1
v -0.1 0.6 0.9
v 0 0.6 0.9
v -0.1 0.6 0.8
v 0 0.6 0.8
v -0.1 0.6 0.7
v 0 0.6 0.7
v -0.1 0.6 0.6
v 0 0.6 0.6
v -0.2 0.6 0.5
v -0.1 0.6 0.5
v 0 0.6 0.5
v 0.1 0.6 0.5
v -0.1 0.7 2
v 0 0.7 2
v -0.1 0.7 1.9
v 0 0.7 1.9
v -0.2 0.1 0.5
v -0.1 0.1 0.5
v 0 0.1 0.5
v 0.1 0.1 0.5
v -0.2 0.1 0.4
v -0.1 0.1 0.4
v 0 0.1 0.4
v 0.1 0.1 0.4
v -0.1 0.1 0.3
v 0 0.1 0.3
v -0.2 0.1 0.2
v -0.1 0.1 0.2
v 0 0.1 0.2
v 0.1 0.1 0.2
v -0.2 0.1 0.1
v -0.1 0.1 0.1
v 0 0.1 0.1
v 0.1 0.1 0.1
v -0.1 0.2 0.7
v 0 0.2 0.7
v -0.2 0.2 0.6
v -0.1 0.2 0.6
v 0 0.2 0.6
v 0.1 0.2 0.6
v -0.2 0.2 0.5
v -0.1 0.2 0.5
v 0.1 0.2 0.5
v -0.1 0.2 0.1
v 0 0.2 0.1
v -0.1 0.2 0
v 0 0.2 0
v -0.2 0.4 0.1
v -0.1 0.4 0.1
v 0.1 0.4 0.1
v -0.2 0.4 0
v -0.1 0.4 0
v 0.1 0.4 0
v -0.1 0.5 2
v 0 0.5 2
v -0.1 0.5 1.9
v 0 0.5 1.9
v -0.2 0.5 1
v -0.1 0.5 1
v 0 0.5 1
v 0.1 0.5 1
v -0.1 0.5 0.9
v 0 0.5 0.9
v -0.2 0.5 0.8
v -0.1 0.5 0.8
v 0 0.5 0.8
v -0.1 0.5 0.7
v 0 0.5 0.7
v -0.2 0.5 0.6
v -0.1 0.5 0.6
v 0 0.5 0.6
v -0.2 0.5 0.5
v -0.1 0.5 0.5
v 0 0.5 0.5
v 0.1 0.5 0.5
v -0.2 0.5 0.4
v 0.1 0.5 0.4
v -0.1 0.5 0.3
v 0 0.5 0.3
v -0.2 0.5 0.2
v -0.1 0.5 0.2
v 0 0.5 0.2
v -0.2 0.5 0.1
v -0.1 0.5 0.1
v 0.1 0.5 0.1
v -0.2 0.6 0.5
v -0.1 0.6 0.5
v 0 0.6 0.5
v 0.1 0.6 0.5
v -0.2 0.6 0.4
v -0.1 0.6 0.4
v 0 0.6 0.4
v 0.1 0.6 0.4
v -0.2 0.7 2
v -0.1 0.7 2
v 0 0.7 2
v 0.1 0.7 2
v -0.1 0.7 1.8
v 0 0.7 1.8
v -0.1 0.7 1.3
v 0 0.7 1.3
v -0.1 0.7 1.1
v 0 0.7 1.1
v -0.2 0.7 0.5
v -0.1 0.7 0.5
v 0 0.7 0.5
v 0.1 0.7 0.5
v -0.1 0.7 0.4
v 0 0.7 0.4
v -0.1 0.8 2
v 0 0.8 2
v -0.1 0.8 1.8
v 0 0.8 1.8
v -0.1 0.8 1.3
v 0 0.8 1.3
v -0.1 0.8 1.1
v 0 0.8 1.1

# faces
f 6/6/1 2/6/1 1/6/1
f 7/2/1 3/2/1 2/2/1
f 7/6/1 2/6/1 6/6/1
f 8/6/1 4/6/1 3/6/1
f 8/2/1 3/2/1 7/2/1
f 9/6/1 4/6/1 8/6/1
f 12/3/1 6/3/1 5/3/1
f 13/3/1 6/3/1 12/3/1
f 15/2/1 12/2/1 11/2/1
f 16/2/1 12/2/1 15/2/1
f 19/4/1 10/4/1 9/4/1
f 21/4/1 17/4/1 16/4/1
f 21/4/1 16/4/1 15/4/1
f 21/4/1 15/4/1 14/4/1
f 22/4/1 17/4/1 21/4/1
f 23/4/1 17/4/1 22/4/1
f 24/4/1 17/4/1 23/4/1
f 25/4/1 17/4/1 24/4/1
f 26/4/1 19/4/1 18/4/1
f 27/4/1 10/4/1 19/4/1
f 27/4/1 19/4/1 26/4/1
f 28/4/1 10/4/1 27/4/1
f 31/6/1 21/6/1 20/6/1
f 32/1/1 22/1/1 21/1/1
f 32/6/1 21/6/1 31/6/1
f 33/4/1 23/4/1 22/4/1
f 33/1/1 22/1/1 32/1/1
f 34/1/1 24/1/1 23/1/1
f 34/4/1 23/4/1 33/4/1
f 35/6/1 25/6/1 24/6/1
f 35/1/1 24/1/1 34/1/1
f 35/6/1 26/6/1 25/6/1
f 36/6/1 26/6/1 35/6/1
f 37/4/1 27/4/1 26/4/1
f 37/6/1 26/6/1 36/6/1
f 38/4/1 27/4/1 37/4/1
f 39/6/1 30/6/1 29/6/1
f 40/1/1 31/1/1 30/1/1
f 40/6/1 30/6/1 39/6/1
f 41/6/1 32/6/1 31/6/1
f 41/1/1 31/1/1 40/1/1
f 42/6/1 32/6/1 41/6/1
f 43/5/1 36/5/1 35/5/1
f 44/5/1 36/5/1 43/5/1
f 45/5/1 40/5/1 39/5/1
f 45/5/1 42/5/1 41/5/1
f 45/5/1 43/5/1 42/5/1
f 45/5/1 41/5/1 40/5/1
f 46/5/1 43/5/1 45/5/1
f 52/6/1 48/6/1 47/6/1
f 53/6/1 48/6/1 52/6/1
f 54/6/1 50/6/1 49/6/1
f 55/6/1 50/6/1 54/6/1
f 56/6/1 52/6/1 51/6/1
f 57/6/1 52/6/1 56/6/1
f 63/6/1 59/6/1 58/6/1
f 64/6/1 59/6/1 63/6/1
f 65/6/1 61/6/1 60/6/1
f 66/1/1 62/1/1 61/1/1
f 66/6/1 61/6/1 65/6/1
f 67/6/1 63/6/1 62/6/1
f 67/1/1 62/1/1 66/1/1
f 68/6/1 63/6/1 67/6/1
f 75/14/1 70/14/1 69/14/1
f 76/13/1 71/13/1 70/13/1
f 76/14/1 70/14/1 75/14/1
f 77/12/1 72/12/1 71/12/1
f 77/13/1 71/13/1 76/13/1
f 78/11/1 73/11/1 72/11/1
f 78/12/1 72/12/1 77/12/1
f 79/10/1 74/10/1 73/10/1
f 79/11/1 73/11/1 78/11/1
f 80/10/1 74/10/1 79/10/1
f 86/5/1 81/5/1 80/5/1
f 87/5/1 81/5/1 86/5/1
f 88/8/1 83/8/1 82/8/1
f 89/7/1 84/7/1 83/7/1
f 89/8/1 83/8/1 88/8/1
f 90/9/1 85/9/1 84/9/1
f 90/7/1 84/7/1 89/7/1
f 91/9/1 85/9/1 90/9/1
f 97/6/1 93/6/1 92/6/1
f 98/6/1 93/6/1 97/6/1
f 99/4/1 95/4/1 94/4/1
f 100/6/1 96/6/1 95/6/1
f 100/4/1 95/4/1 99/4/1
f 101/6/1 96/6/1 100/6/1
f 106/6/1 103/6/1 102/6/1
f 107/6/1 103/6/1 106/6/1
f 108/6/1 105/6/1 104/6/1
f 109/6/1 105/6/1 108/6/1
f 114/6/1 111/6/1 110/6/1
f 115/6/1 111/6/1 114/6/1
f 116/6/1 113/6/1 112/6/1
f 117/6/1 113/6/1 116/6/1
f 118/5/1 117/5/1 116/5/1
f 119/5/1 117/5/1 118/5/1
f 120/6/2 121/6/2 125/6/2
f 125/6/2 121/6/2 126/6/2
f 122/2/2 123/2/2 127/2/2
f 123/6/2 124/6/2 128/6/2
f 127/2/2 123/2/2 128/2/2
f 128/6/2 124/6/2 129/6/2
f 130/2/2 131/2/2 134/2/2
f 134/2/2 131/2/2 135/2/2
f 132/4/2 133/4/2 136/4/2
f 136/4/2 133/4/2 137/4/2
f 138/6/2 139/6/2 142/6/2
f 142/6/2 139/6/2 143/6/2
f 140/6/2 141/6/2 144/6/2
f 144/6/2 141/6/2 145/6/2
f 144/5/2 145/5/2 146/5/2
f 146/5/2 145/5/2 147/5/2
f 148/6/2 149/6/2 153/6/2
f 153/6/2 149/6/2 154/6/2
f 150/6/2 151/6/2 155/6/2
f 155/6/2 151/6/2 156/6/2
f 152/6/2 153/6/2 157/6/2
f 157/6/2 153/6/2 158/6/2
f 159/6/2 160/6/2 164/6/2
f 164/6/2 160/6/2 165/6/2
f 161/6/2 162/6/2 166/6/2
f 166/6/2 162/6/2 167/6/2
f 162/1/2 163/1/2 168/1/2
f 167/6/2 162/6/2 168/6/2
f 168/1/2 163/1/2 169/1/2
f 169/1/2 163/1/2 170/1/2
f 163/6/2 164/6/2 171/6/2
f 170/1/2 163/1/2 171/1/2
f 171/6/2 164/6/2 172/6/2
f 173/14/2 174/14/2 179/14/2
f 174/13/2 175/13/2 180/13/2
f 179/14/2 174/14/2 180/14/2
f 175/12/2 176/12/2 181/12/2
f 180/13/2 175/13/2 181/13/2
f 176/11/2 177/11/2 182/11/2
f 181/12/2 176/12/2 182/12/2
f 177/10/2 178/10/2 183/10/2
f 182/11/2 177/11/2 183/11/2
f 183/10/2 178/10/2 184/10/2
f 184/5/2 185/5/2 190/5/2
f 190/5/2 185/5/2 191/5/2
f 186/8/2 187/8/2 192/8/2
f 187/7/2 188/7/2 193/7/2
f 192/8/2 187/8/2 193/8/2
f 188/9/2 189/9/2 194/9/2
f 193/7/2 188/7/2 194/7/2
f 194/9/2 189/9/2 195/9/2
f 196/6/2 197/6/2 201/6/2
f 197/4/2 198/4/2 202/4/2
f 201/6/2 197/6/2 202/6/2
f 198/6/2 199/6/2 203/6/2
f 202/4/2 198/4/2 203/4/2
f 203/6/2 199/6/2 204/6/2
f 200/6/2 201/6/2 207/6/2
f 207/6/2 201/6/2 208/6/2
f 204/4/2 205/4/2 209/4/2
f 209/4/2 205/4/2 210/4/2
f 206/6/2 207/6/2 213/6/2
f 213/6/2 207/6/2 214/6/2
f 209/6/2 210/6/2 218/6/2
f 211/6/2 212/6/2 220/6/2
f 212/3/2 213/3/2 221/3/2
f 220/6/2 212/6/2 221/6/2
f 213/6/2 214/6/2 222/6/2
f 221/3/2 213/3/2 222/3/2
f 214/3/2 215/3/2 223/3/2
f 222/6/2 214/6/2 223/6/2
f 215/4/2 216/4/2 224/4/2
f 223/3/2 215/3/2 224/3/2
f 224/4/2 216/4/2 225/4/2
f 217/4/2 218/4/2 226/4/2
f 218/6/2 210/6/2 227/6/2
f 226/4/2 218/4/2 227/4/2
f 227/6/2 210/6/2 228/6/2
f 219/3/2 220/3/2 233/3/2
f 224/6/2 225/6/2 234/6/2
f 222/6/2 223/6/2 234/6/2
f 233/3/2 220/3/2 234/3/2
f 220/6/2 221/6/2 234/6/2
f 221/6/2 222/6/2 234/6/2
f 225/6/2 226/6/2 234/6/2
f 223/6/2 224/6/2 234/6/2
f 226/6/2 227/6/2 234/6/2
f 234/6/2 227/6/2 235/6/2
f 235/6/2 227/6/2 236/6/2
f 236/6/2 227/6/2 237/6/2
f 229/6/2 230/6/2 238/6/2
f 230/3/2 231/3/2 239/3/2
f 238/6/2 230/6/2 239/6/2
f 231/6/2 232/6/2 240/6/2
f 239/3/2 231/3/2 240/3/2
f 232/3/2 233/3/2 241/3/2
f 240/6/2 232/6/2 241/6/2
f 233/3/2 234/3/2 241/3/2
f 241/3/2 234/3/2 242/3/2
f 235/5/2 236/5/2 243/5/2
f 243/5/2 236/5/2 244/5/2
f 239/5/2 240/5/2 245/5/2
f 238/5/2 239/5/2 245/5/2
f 242/5/2 243/5/2 245/5/2
f 241/5/2 242/5/2 245/5/2
f 240/5/2 241/5/2 245/5/2
f 245/5/2 243/5/2 246/5/2
f 251/6/3 248/6/3 247/6/3
f 252/5/3 249/5/3 248/5/3
f 252/6/3 248/6/3 251/6/3
f 253/5/3 249/5/3 252/5/3
f 255/6/3 251/6/3 250/6/3
f 256/6/3 251/6/3 255/6/3
f 258/8/3 254/8/3 253/8/3
f 259/8/3 254/8/3 258/8/3
f 260/6/3 257/6/3 256/6/3
f 261/5/3 258/5/3 257/5/3
f 261/6/3 257/6/3 260/6/3
f 262/5/3 258/5/3 261/5/3
f 266/15/3 264/15/3 263/15/3
f 266/15/3 265/15/3 264/15/3
f 267/15/3 265/15/3 266/15/3
f 268/15/3 265/15/3 267/15/3
f 272/6/3 270/6/3 269/6/3
f 273/6/3 270/6/3 272/6/3
f 274/6/3 272/6/3 271/6/3
f 275/6/3 272/6/3 274/6/3
f 277/3/3 276/3/3 275/3/3
f 278/3/3 276/3/3 277/3/3
f 281/4/3 280/4/3 279/4/3
f 282/4/3 280/4/3 281/4/3
f 285/6/3 284/6/3 283/6/3
f 286/6/3 284/6/3 285/6/3
f 290/2/3 288/2/3 287/2/3
f 291/2/3 288/2/3 290/2/3
f 292/6/3 290/6/3 289/6/3
f 293/6/3 290/6/3 292/6/3
f 295/6/3 294/6/3 293/6/3
f 296/6/3 294/6/3 295/6/3
f 300/3/3 298/3/3 297/3/3
f 301/3/3 298/3/3 300/3/3
f 302/6/3 300/6/3 299/6/3
f 303/6/3 300/6/3 302/6/3
f 305/6/3 304/6/3 303/6/3
f 306/6/3 304/6/3 305/6/3
f 311/6/3 308/6/3 307/6/3
f 312/6/3 308/6/3 311/6/3
f 313/5/3 310/5/3 309/5/3
f 314/5/3 310/5/3 313/5/3
f 319/6/3 316/6/3 315/6/3
f 320/6/3 316/6/3 319/6/3
f 321/5/3 318/5/3 317/5/3
f 322/5/3 318/5/3 321/5/3
f 325/6/3 324/6/3 323/6/3
f 326/6/3 324/6/3 325/6/3
f 329/4/3 328/4/3 327/4/3
f 331/4/3 329/4/3 327/4/3
f 331/6/3 330/6/3 329/6/3
f 332/6/3 330/6/3 331/6/3
f 333/4/3 331/4/3 327/4/3
f 334/4/3 331/4/3 333/4/3
f 338/4/3 336/4/3 335/4/3
f 339/4/3 336/4/3 338/4/3
f 340/4/3 336/4/3 339/4/3
f 341/6/3 338/6/3 337/6/3
f 342/4/3 339/4/3 338/4/3
f 342/6/3 338/6/3 341/6/3
f 343/4/3 339/4/3 342/4/3
f 345/4/3 343/4/3 342/4/3
f 346/6/3 344/6/3 343/6/3
f 346/4/3 343/4/3 345/4/3
f 347/6/3 344/6/3 346/6/3
f 348/9/4 349/9/4 350/9/4
f 350/9/4 349/9/4 351/9/4
f 352/6/4 353/6/4 354/6/4
f 354/6/4 353/6/4 355/6/4
f 356/3/4 357/3/4 358/3/4
f 358/3/4 357/3/4 359/3/4
f 360/2/4 361/2/4 362/2/4
f 362/2/4 361/2/4 363/2/4
f 364/6/4 365/6/4 366/6/4
f 366/6/4 365/6/4 367/6/4
f 368/3/4 369/3/4 373/3/4
f 373/3/4 369/3/4 374/3/4
f 370/5/4 371/5/4 375/5/4
f 375/5/4 371/5/4 376/5/4
f 373/6/4 374/6/4 377/6/4
f 372/6/4 373/6/4 377/6/4
f 377/6/4 374/6/4 378/6/4
f 378/6/4 374/6/4 381/6/4
f 381/6/4 374/6/4 382/6/4
f 379/5/4 380/5/4 383/5/4
f 383/5/4 380/5/4 384/5/4
f 387/5/4 388/5/4 389/5/4
f 387/5/4 389/5/4 391/5/4
f 389/5/4 390/5/4 391/5/4
f 391/5/4 390/5/4 392/5/4
f 385/4/4 386/4/4 393/4/4
f 393/4/4 386/4/4 394/4/4
f 387/5/4 391/5/4 395/5/4
f 395/5/4 391/5/4 396/5/4
f 397/6/4 398/6/4 401/6/4
f 401/6/4 398/6/4 402/6/4
f 399/6/4 400/6/4 403/6/4
f 403/6/4 400/6/4 404/6/4
f 405/6/4 406/6/4 409/6/4
f 409/6/4 406/6/4 410/6/4
f 407/4/4 408/4/4 411/4/4
f 411/4/4 408/4/4 412/4/4
f 413/6/4 414/6/4 415/6/4
f 415/6/4 414/6/4 416/6/4
f 411/6/4 412/6/4 417/6/4
f 417/6/4 412/6/4 418/6/4
f 419/4/4 420/4/4 422/4/4
f 422/4/4 420/4/4 423/4/4
f 423/4/4 420/4/4 424/4/4
f 424/4/4 420/4/4 425/4/4
f 421/6/4 422/6/4 426/6/4
f 422/4/4 423/4/4 427/4/4
f 426/6/4 422/6/4 427/6/4
f 427/4/4 423/4/4 428/4/4
f 424/6/4 425/6/4 429/6/4
f 427/4/4 428/4/4 430/4/4
f 428/6/4 429/6/4 431/6/4
f 430/4/4 428/4/4 431/4/4
f 429/6/4 425/6/4 432/6/4
f 431/6/4 429/6/4 432/6/4
f 436/6/5 434/6/5 433/6/5
f 437/6/5 434/6/5 436/6/5
f 439/6/5 436/6/5 435/6/5
f 440/6/5 436/6/5 439/6/5
f 441/6/5 438/6/5 437/6/5
f 442/6/5 438/6/5 441/6/5
f 443/2/5 440/2/5 439/2/5
f 443/6/5 441/6/5 440/6/5
f 444/4/5 442/4/5 441/4/5
f 444/6/5 441/6/5 443/6/5
f 445/2/5 443/2/5 439/2/5
f 446/2/5 443/2/5 445/2/5
f 447/4/5 442/4/5 444/4/5
f 448/4/5 442/4/5 447/4/5
f 449/6/5 446/6/5 445/6/5
f 450/6/5 446/6/5 449/6/5
f 451/6/5 448/6/5 447/6/5
f 452/6/5 448/6/5 451/6/5
f 453/6/5 451/6/5 450/6/5
f 454/6/5 451/6/5 453/6/5
f 458/6/5 456/6/5 455/6/5
f 459/6/5 456/6/5 458/6/5
f 461/3/5 458/3/5 457/3/5
f 462/3/5 458/3/5 461/3/5
f 463/6/5 460/6/5 459/6/5
f 464/6/5 460/6/5 463/6/5
f 469/4/5 466/4/5 465/4/5
f 470/4/5 466/4/5 469/4/5
f 471/4/5 468/4/5 467/4/5
f 472/4/5 468/4/5 471/4/5
f 477/2/5 474/2/5 473/2/5
f 478/2/5 474/2/5 477/2/5
f 479/6/5 476/6/5 475/6/5
f 480/6/5 476/6/5 479/6/5
f 484/6/5 482/6/5 481/6/5
f 485/6/5 482/6/5 484/6/5
f 487/6/5 485/6/5 484/6/5
f 487/6/5 486/6/5 485/6/5
f 488/6/5 486/6/5 487/6/5
f 489/4/5 484/4/5 483/4/5
f 490/6/5 487/6/5 484/6/5
f 490/4/5 484/4/5 489/4/5
f 491/3/5 488/3/5 487/3/5
f 491/6/5 487/6/5 490/6/5
f 492/3/5 488/3/5 491/3/5
f 494/6/5 491/6/5 490/6/5
f 495/6/5 491/6/5 494/6/5
f 497/4/5 494/4/5 493/4/5
f 497/6/5 495/6/5 494/6/5
f 498/3/5 496/3/5 495/3/5
f 498/6/5 495/6/5 497/6/5
f 499/3/5 496/3/5 498/3/5
f 500/4/5 497/4/5 493/4/5
f 500/4/5 498/4/5 497/4/5
f 500/4/5 499/4/5 498/4/5
f 501/4/5 499/4/5 500/4/5
f 504/4/5 503/4/5 502/4/5
f 505/4/5 503/4/5 504/4/5
f 506/4/5 503/4/5 505/4/5
f 507/4/5 503/4/5 506/4/5
f 508/6/5 506/6/5 505/6/5
f 509/6/5 506/6/5 508/6/5
f 512/6/5 511/6/5 510/6/5
f 513/6/5 511/6/5 512/6/5
f 514/1/5 513/1/5 512/1/5
f 515/1/5 513/1/5 514/1/5
f 517/6/5 515/6/5 514/6/5
f 518/6/5 515/6/5 517/6/5
f 520/6/5 517/6/5 516/6/5
f 521/6/5 517/6/5 520/6/5
f 522/3/5 519/3/5 518/3/5
f 523/3/5 519/3/5 522/3/5
f 526/6/5 525/6/5 524/6/5
f 527/6/5 525/6/5 526/6/5
f 528/6/5 526/6/5 524/6/5
f 529/6/5 526/6/5 528/6/5
f 530/6/5 525/6/5 527/6/5
f 531/6/5 525/6/5 530/6/5
f 536/6/5 535/6/5 534/6/5
f 537/6/5 535/6/5 536/6/5
f 538/6/5 533/6/5 532/6/5
f 539/3/5 537/3/5 536/3/5
f 540/3/5 537/3/5 539/3/5
f 541/3/5 537/3/5 540/3/5
f 542/6/5 541/6/5 540/6/5
f 543/6/5 541/6/5 542/6/5
f 544/6/5 538/6/5 532/6/5
f 545/6/5 538/6/5 544/6/5
f 546/3/5 543/3/5 542/3/5
f 547/1/5 545/1/5 544/1/5
f 548/1/5 545/1/5 547/1/5
f 549/3/5 543/3/5 546/3/5
f 550/3/5 543/3/5 549/3/5
f 555/5/5 552/5/5 551/5/5
f 556/5/5 554/5/5 553/5/5
f 557/5/5 555/5/5 551/5/5
f 558/5/5 554/5/5 556/5/5
f 559/5/5 557/5/5 551/5/5
f 560/5/5 554/5/5 558/5/5
f 561/5/5 559/5/5 551/5/5
f 562/5/5 554/5/5 560/5/5
f 563/5/5 561/5/5 551/5/5
f 564/5/5 561/5/5 563/5/5
f 565/5/5 554/5/5 562/5/5
f 566/5/5 554/5/5 565/5/5
f 569/8/5 568/8/5 567/8/5
f 570/8/5 568/8/5 569/8/5
f 571/6/6 572/6/6 575/6/6
f 575/6/6 572/6/6 576/6/6
f 573/6/6 574/6/6 577/6/6
f 577/6/6 574/6/6 578/6/6
f 575/2/6 576/2/6 579/2/6
f 576/6/6 577/6/6 579/6/6
f 577/4/6 578/4/6 580/4/6
f 579/6/6 577/6/6 580/6/6
f 575/2/6 579/2/6 581/2/6
f 581/2/6 579/2/6 582/2/6
f 580/4/6 578/4/6 583/4/6
f 583/4/6 578/4/6 584/4/6
f 581/6/6 582/6/6 585/6/6
f 585/6/6 582/6/6 586/6/6
f 583/6/6 584/6/6 587/6/6
f 587/6/6 584/6/6 588/6/6
f 589/6/6 590/6/6 592/6/6
f 592/6/6 590/6/6 593/6/6
f 591/3/6 592/3/6 595/3/6
f 593/6/6 594/6/6 596/6/6
f 595/3/6 592/3/6 596/3/6
f 592/6/6 593/6/6 596/6/6
f 596/6/6 594/6/6 597/6/6
f 598/4/6 599/4/6 600/4/6
f 600/4/6 599/4/6 601/4/6
f 602/4/6 603/4/6 605/4/6
f 603/6/6 604/6/6 606/6/6
f 605/4/6 603/4/6 606/4/6
f 606/6/6 604/6/6 607/6/6
f 608/6/6 609/6/6 610/6/6
f 610/6/6 609/6/6 611/6/6
f 612/1/6 613/1/6 616/1/6
f 614/6/6 615/6/6 617/6/6
f 612/1/6 616/1/6 618/1/6
f 618/1/6 616/1/6 619/1/6
f 617/6/6 615/6/6 620/6/6
f 618/4/6 619/4/6 621/4/6
f 620/6/6 615/6/6 622/6/6
f 618/4/6 621/4/6 623/4/6
f 623/4/6 621/4/6 624/4/6
f 622/6/6 615/6/6 625/6/6
f 623/1/6 624/1/6 626/1/6
f 626/1/6 624/1/6 627/1/6
f 625/6/6 615/6/6 628/6/6
f 628/6/6 615/6/6 629/6/6
f 630/6/6 631/6/6 632/6/6
f 632/6/6 631/6/6 633/6/6
f 630/6/6 632/6/6 634/6/6
f 634/6/6 632/6/6 635/6/6
f 633/6/6 631/6/6 636/6/6
f 634/4/6 635/4/6 637/4/6
f 635/6/6 636/6/6 638/6/6
f 637/4/6 635/4/6 638/4/6
f 636/6/6 631/6/6 639/6/6
f 638/6/6 636/6/6 639/6/6
f 640/5/6 641/5/6 644/5/6
f 644/5/6 641/5/6 645/5/6
f 642/5/6 643/5/6 646/5/6
f 646/5/6 643/5/6 647/5/6
f 648/5/6 649/5/6 652/5/6
f 650/5/6 651/5/6 653/5/6
f 648/5/6 652/5/6 654/5/6
f 653/5/6 651/5/6 655/5/6
f 648/5/6 654/5/6 656/5/6
f 655/5/6 651/5/6 657/5/6
f 648/5/6 656/5/6 658/5/6
f 656/5/6 657/5/6 658/5/6
f 658/5/6 657/5/6 659/5/6
f 657/5/6 651/5/6 660/5/6
f 659/5/6 657/5/6 660/5/6
f 660/5/6 651/5/6 661/5/6
f 659/5/6 660/5/6 662/5/6
f 662/5/6 660/5/6 663/5/6
f 664/8/6 665/8/6 666/8/6
f 666/8/6 665/8/6 667/8/6
f 666/7/6 667/7/6 668/7/6
f 668/7/6 667/7/6 669/7/6
f 668/9/6 669/9/6 670/9/6
f 670/9/6 669/9/6 671/9/6
