# MagicaVoxel @ Ephtracy

# group
o 

# material
mtllib Health.mtl
usemtl palette

# normals
vn -1 0 0
vn 1 0 0
vn 0 0 1
vn 0 0 -1
vn 0 -1 0
vn 0 1 0

# texcoords
vt 0.845703 0.5
vt 0.849609 0.5
vt 0.853516 0.5

# verts
v -0.5 0.4 -1.49012e-08
v -0.5 0.4 -0.2
v -0.5 0.9 -1.49012e-08
v -0.5 0.9 -0.2
v -0.4 0.3 -1.49012e-08
v -0.4 0.3 -0.2
v -0.4 0.4 -1.49012e-08
v -0.4 0.4 -0.2
v -0.4 0.5 0.1
v -0.4 0.5 -1.49012e-08
v -0.4 0.5 -0.2
v -0.4 0.5 -0.3
v -0.4 0.8 0.1
v -0.4 0.8 -1.49012e-08
v -0.4 0.8 -0.2
v -0.4 0.8 -0.3
v -0.4 0.9 -1.49012e-08
v -0.4 0.9 -0.2
v -0.4 1 -1.49012e-08
v -0.4 1 -0.2
v -0.3 0.2 -1.49012e-08
v -0.3 0.2 -0.2
v -0.3 0.3 0.1
v -0.3 0.3 -1.49012e-08
v -0.3 0.3 -0.2
v -0.3 0.3 -0.3
v -0.3 0.4 0.1
v -0.3 0.4 -1.49012e-08
v -0.3 0.5 0.1
v -0.3 0.5 -1.49012e-08
v -0.3 0.5 -0.2
v -0.3 0.5 -0.3
v -0.3 0.8 0.1
v -0.3 0.8 -1.49012e-08
v -0.3 0.8 -0.2
v -0.3 0.8 -0.3
v -0.3 0.9 0.1
v -0.3 0.9 -1.49012e-08
v -0.3 0.9 -0.2
v -0.3 0.9 -0.3
v -0.2 0.1 -1.49012e-08
v -0.2 0.1 -0.2
v -0.2 0.2 0.1
v -0.2 0.2 -1.49012e-08
v -0.2 0.2 -0.2
v -0.2 0.2 -0.3
v -0.2 0.3 0.1
v -0.2 0.3 -1.49012e-08
v -0.2 0.3 -0.2
v -0.2 0.3 -0.3
v -0.1 0 -1.49012e-08
v -0.1 0 -0.2
v -0.1 0.1 0.1
v -0.1 0.1 -1.49012e-08
v -0.1 0.1 -0.2
v -0.1 0.1 -0.3
v -0.1 0.2 0.1
v -0.1 0.2 -1.49012e-08
v -0.1 0.2 -0.2
v -0.1 0.2 -0.3
v 0.1 0.7 0.1
v 0.1 0.7 -1.49012e-08
v 0.1 0.7 -0.2
v 0.1 0.7 -0.3
v 0.1 0.8 0.1
v 0.1 0.8 -1.49012e-08
v 0.1 0.8 -0.2
v 0.1 0.8 -0.3
v 0.1 0.9 -1.49012e-08
v 0.1 0.9 -0.2
v 0.2 0.8 0.1
v 0.2 0.8 -1.49012e-08
v 0.2 0.8 -0.2
v 0.2 0.8 -0.3
v 0.2 0.9 0.1
v 0.2 0.9 -1.49012e-08
v 0.2 0.9 -0.2
v 0.2 0.9 -0.3
v 0.2 1 -1.49012e-08
v 0.2 1 -0.2
v -0.2 0.8 0.1
v -0.2 0.8 -1.49012e-08
v -0.2 0.8 -0.2
v -0.2 0.8 -0.3
v -0.2 0.9 0.1
v -0.2 0.9 -1.49012e-08
v -0.2 0.9 -0.1
v -0.2 0.9 -0.2
v -0.2 0.9 -0.3
v -0.2 1 -1.49012e-08
v -0.2 1 -0.1
v -0.2 1 -0.2
v -0.1 0.7 0.1
v -0.1 0.7 -1.49012e-08
v -0.1 0.7 -0.2
v -0.1 0.7 -0.3
v -0.1 0.8 0.1
v -0.1 0.8 -1.49012e-08
v -0.1 0.8 -0.1
v -0.1 0.8 -0.2
v -0.1 0.8 -0.3
v -0.1 0.9 -1.49012e-08
v -0.1 0.9 -0.1
v -0.1 0.9 -0.2
v 0.1 0 -1.49012e-08
v 0.1 0 -0.1
v 0.1 0 -0.2
v 0.1 0.1 0.1
v 0.1 0.1 -1.49012e-08
v 0.1 0.1 -0.1
v 0.1 0.1 -0.2
v 0.1 0.1 -0.3
v 0.1 0.2 0.1
v 0.1 0.2 -1.49012e-08
v 0.1 0.2 -0.2
v 0.1 0.2 -0.3
v 0.2 0.1 -1.49012e-08
v 0.2 0.1 -0.2
v 0.2 0.2 0.1
v 0.2 0.2 -1.49012e-08
v 0.2 0.2 -0.1
v 0.2 0.2 -0.2
v 0.2 0.2 -0.3
v 0.2 0.3 0.1
v 0.2 0.3 -1.49012e-08
v 0.2 0.4 0.1
v 0.2 0.4 -1.49012e-08
v 0.2 0.4 -0.2
v 0.2 0.4 -0.3
v 0.3 0.2 -1.49012e-08
v 0.3 0.2 -0.1
v 0.3 0.2 -0.2
v 0.3 0.3 -1.49012e-08
v 0.3 0.3 -0.1
v 0.3 0.3 -0.2
v 0.3 0.4 0.1
v 0.3 0.4 -1.49012e-08
v 0.3 0.4 -0.2
v 0.3 0.4 -0.3
v 0.3 0.5 0.1
v 0.3 0.5 -1.49012e-08
v 0.3 0.5 -0.2
v 0.3 0.5 -0.3
v 0.3 0.8 0.1
v 0.3 0.8 -1.49012e-08
v 0.3 0.8 -0.2
v 0.3 0.8 -0.3
v 0.3 0.9 0.1
v 0.3 0.9 -1.49012e-08
v 0.3 0.9 -0.2
v 0.3 0.9 -0.3
v 0.4 0.3 -1.49012e-08
v 0.4 0.3 -0.2
v 0.4 0.4 -1.49012e-08
v 0.4 0.4 -0.1
v 0.4 0.4 -0.2
v 0.4 0.5 0.1
v 0.4 0.5 -1.49012e-08
v 0.4 0.5 -0.2
v 0.4 0.5 -0.3
v 0.4 0.6 -0.2
v 0.4 0.6 -0.3
v 0.4 0.7 0.1
v 0.4 0.7 -1.49012e-08
v 0.4 0.7 -0.2
v 0.4 0.7 -0.3
v 0.4 0.8 0.1
v 0.4 0.8 -1.49012e-08
v 0.4 0.8 -0.2
v 0.4 0.8 -0.3
v 0.4 0.9 -1.49012e-08
v 0.4 0.9 -0.1
v 0.4 0.9 -0.2
v 0.4 1 -1.49012e-08
v 0.4 1 -0.1
v 0.4 1 -0.2
v 0.5 0.4 -1.49012e-08
v 0.5 0.4 -0.1
v 0.5 0.4 -0.2
v 0.5 0.9 -1.49012e-08
v 0.5 0.9 -0.1
v 0.5 0.9 -0.2
v -0.4 0.5 0.1
v -0.4 0.8 0.1
v -0.3 0.3 0.1
v -0.3 0.4 0.1
v -0.3 0.5 0.1
v -0.3 0.8 0.1
v -0.3 0.9 0.1
v -0.2 0.2 0.1
v -0.2 0.3 0.1
v -0.2 0.8 0.1
v -0.2 0.9 0.1
v -0.1 0.1 0.1
v -0.1 0.2 0.1
v -0.1 0.4 0.1
v -0.1 0.5 0.1
v -0.1 0.7 0.1
v -0.1 0.8 0.1
v 0 0.1 0.1
v 0 0.2 0.1
v 0 0.4 0.1
v 0 0.7 0.1
v 0.1 0.1 0.1
v 0.1 0.2 0.1
v 0.1 0.3 0.1
v 0.1 0.4 0.1
v 0.1 0.6 0.1
v 0.1 0.7 0.1
v 0.1 0.8 0.1
v 0.2 0.2 0.1
v 0.2 0.3 0.1
v 0.2 0.4 0.1
v 0.2 0.8 0.1
v 0.2 0.9 0.1
v 0.3 0.4 0.1
v 0.3 0.5 0.1
v 0.3 0.6 0.1
v 0.3 0.7 0.1
v 0.3 0.8 0.1
v 0.3 0.9 0.1
v 0.4 0.5 0.1
v 0.4 0.7 0.1
v 0.4 0.8 0.1
v -0.5 0.4 -1.49012e-08
v -0.5 0.9 -1.49012e-08
v -0.4 0.3 -1.49012e-08
v -0.4 0.4 -1.49012e-08
v -0.4 0.5 -1.49012e-08
v -0.4 0.8 -1.49012e-08
v -0.4 0.9 -1.49012e-08
v -0.4 1 -1.49012e-08
v -0.3 0.2 -1.49012e-08
v -0.3 0.3 -1.49012e-08
v -0.3 0.4 -1.49012e-08
v -0.3 0.5 -1.49012e-08
v -0.3 0.8 -1.49012e-08
v -0.3 0.9 -1.49012e-08
v -0.2 0.1 -1.49012e-08
v -0.2 0.2 -1.49012e-08
v -0.2 0.3 -1.49012e-08
v -0.2 0.8 -1.49012e-08
v -0.2 0.9 -1.49012e-08
v -0.2 1 -1.49012e-08
v -0.1 0 -1.49012e-08
v -0.1 0.1 -1.49012e-08
v -0.1 0.2 -1.49012e-08
v -0.1 0.7 -1.49012e-08
v -0.1 0.8 -1.49012e-08
v -0.1 0.9 -1.49012e-08
v 0 0 -1.49012e-08
v 0 0.1 -1.49012e-08
v 0 0.7 -1.49012e-08
v 0.1 0 -1.49012e-08
v 0.1 0.1 -1.49012e-08
v 0.1 0.2 -1.49012e-08
v 0.1 0.7 -1.49012e-08
v 0.1 0.8 -1.49012e-08
v 0.1 0.9 -1.49012e-08
v 0.2 0.1 -1.49012e-08
v 0.2 0.2 -1.49012e-08
v 0.2 0.3 -1.49012e-08
v 0.2 0.4 -1.49012e-08
v 0.2 0.8 -1.49012e-08
v 0.2 0.9 -1.49012e-08
v 0.2 1 -1.49012e-08
v 0.3 0.2 -1.49012e-08
v 0.3 0.3 -1.49012e-08
v 0.3 0.4 -1.49012e-08
v 0.3 0.5 -1.49012e-08
v 0.3 0.8 -1.49012e-08
v 0.3 0.9 -1.49012e-08
v 0.4 0.3 -1.49012e-08
v 0.4 0.4 -1.49012e-08
v 0.4 0.5 -1.49012e-08
v 0.4 0.7 -1.49012e-08
v 0.4 0.8 -1.49012e-08
v 0.4 0.9 -1.49012e-08
v 0.4 1 -1.49012e-08
v 0.5 0.4 -1.49012e-08
v 0.5 0.9 -1.49012e-08
v -0.5 0.4 -0.2
v -0.5 0.9 -0.2
v -0.4 0.3 -0.2
v -0.4 0.4 -0.2
v -0.4 0.5 -0.2
v -0.4 0.8 -0.2
v -0.4 0.9 -0.2
v -0.4 1 -0.2
v -0.3 0.2 -0.2
v -0.3 0.3 -0.2
v -0.3 0.5 -0.2
v -0.3 0.8 -0.2
v -0.3 0.9 -0.2
v -0.3 1 -0.2
v -0.2 0.1 -0.2
v -0.2 0.2 -0.2
v -0.2 0.3 -0.2
v -0.2 0.8 -0.2
v -0.2 0.9 -0.2
v -0.2 1 -0.2
v -0.1 0 -0.2
v -0.1 0.1 -0.2
v -0.1 0.2 -0.2
v -0.1 0.7 -0.2
v -0.1 0.8 -0.2
v -0.1 0.9 -0.2
v 0.1 0 -0.2
v 0.1 0.1 -0.2
v 0.1 0.2 -0.2
v 0.1 0.7 -0.2
v 0.1 0.8 -0.2
v 0.1 0.9 -0.2
v 0.2 0.1 -0.2
v 0.2 0.2 -0.2
v 0.2 0.4 -0.2
v 0.2 0.8 -0.2
v 0.2 0.9 -0.2
v 0.2 1 -0.2
v 0.3 0.2 -0.2
v 0.3 0.3 -0.2
v 0.3 0.4 -0.2
v 0.3 0.5 -0.2
v 0.3 0.8 -0.2
v 0.3 0.9 -0.2
v 0.3 1 -0.2
v 0.4 0.3 -0.2
v 0.4 0.4 -0.2
v 0.4 0.5 -0.2
v 0.4 0.6 -0.2
v 0.4 0.7 -0.2
v 0.4 0.8 -0.2
v 0.4 0.9 -0.2
v 0.4 1 -0.2
v 0.5 0.4 -0.2
v 0.5 0.9 -0.2
v -0.4 0.5 -0.3
v -0.4 0.8 -0.3
v -0.3 0.3 -0.3
v -0.3 0.5 -0.3
v -0.3 0.8 -0.3
v -0.3 0.9 -0.3
v -0.2 0.2 -0.3
v -0.2 0.3 -0.3
v -0.2 0.5 -0.3
v -0.2 0.8 -0.3
v -0.2 0.9 -0.3
v -0.1 0.1 -0.3
v -0.1 0.2 -0.3
v -0.1 0.3 -0.3
v -0.1 0.5 -0.3
v -0.1 0.6 -0.3
v -0.1 0.7 -0.3
v -0.1 0.8 -0.3
v 0 0.2 -0.3
v 0 0.3 -0.3
v 0.1 0.1 -0.3
v 0.1 0.2 -0.3
v 0.1 0.4 -0.3
v 0.1 0.6 -0.3
v 0.1 0.7 -0.3
v 0.1 0.8 -0.3
v 0.2 0.2 -0.3
v 0.2 0.4 -0.3
v 0.2 0.5 -0.3
v 0.2 0.6 -0.3
v 0.2 0.7 -0.3
v 0.2 0.8 -0.3
v 0.2 0.9 -0.3
v 0.3 0.4 -0.3
v 0.3 0.5 -0.3
v 0.3 0.6 -0.3
v 0.3 0.8 -0.3
v 0.3 0.9 -0.3
v 0.4 0.5 -0.3
v 0.4 0.6 -0.3
v 0.4 0.7 -0.3
v 0.4 0.8 -0.3
v -0.1 0 -1.49012e-08
v 0 0 -1.49012e-08
v 0.1 0 -1.49012e-08
v 0 0 -0.1
v 0.1 0 -0.1
v -0.1 0 -0.2
v 0.1 0 -0.2
v -0.1 0.1 0.1
v 0 0.1 0.1
v 0.1 0.1 0.1
v -0.2 0.1 -1.49012e-08
v -0.1 0.1 -1.49012e-08
v 0 0.1 -1.49012e-08
v 0.1 0.1 -1.49012e-08
v 0.2 0.1 -1.49012e-08
v 0.1 0.1 -0.1
v -0.2 0.1 -0.2
v -0.1 0.1 -0.2
v 0.1 0.1 -0.2
v 0.2 0.1 -0.2
v -0.1 0.1 -0.3
v 0.1 0.1 -0.3
v -0.2 0.2 0.1
v -0.1 0.2 0.1
v 0.1 0.2 0.1
v 0.2 0.2 0.1
v -0.3 0.2 -1.49012e-08
v -0.2 0.2 -1.49012e-08
v -0.1 0.2 -1.49012e-08
v 0.1 0.2 -1.49012e-08
v 0.2 0.2 -1.49012e-08
v 0.3 0.2 -1.49012e-08
v 0.2 0.2 -0.1
v 0.3 0.2 -0.1
v -0.3 0.2 -0.2
v -0.2 0.2 -0.2
v -0.1 0.2 -0.2
v 0.1 0.2 -0.2
v 0.2 0.2 -0.2
v 0.3 0.2 -0.2
v -0.2 0.2 -0.3
v -0.1 0.2 -0.3
v 0.1 0.2 -0.3
v 0.2 0.2 -0.3
v -0.3 0.3 0.1
v -0.2 0.3 0.1
v -0.4 0.3 -1.49012e-08
v -0.3 0.3 -1.49012e-08
v -0.2 0.3 -1.49012e-08
v 0.3 0.3 -1.49012e-08
v 0.4 0.3 -1.49012e-08
v 0.3 0.3 -0.1
v -0.4 0.3 -0.2
v -0.3 0.3 -0.2
v -0.2 0.3 -0.2
v 0.3 0.3 -0.2
v 0.4 0.3 -0.2
v -0.3 0.3 -0.3
v -0.2 0.3 -0.3
v 0.2 0.4 0.1
v 0.3 0.4 0.1
v -0.5 0.4 -1.49012e-08
v -0.4 0.4 -1.49012e-08
v 0.2 0.4 -1.49012e-08
v 0.3 0.4 -1.49012e-08
v 0.4 0.4 -1.49012e-08
v 0.5 0.4 -1.49012e-08
v 0.4 0.4 -0.1
v 0.5 0.4 -0.1
v -0.5 0.4 -0.2
v -0.4 0.4 -0.2
v 0.2 0.4 -0.2
v 0.3 0.4 -0.2
v 0.4 0.4 -0.2
v 0.5 0.4 -0.2
v 0.2 0.4 -0.3
v 0.3 0.4 -0.3
v -0.4 0.5 0.1
v -0.3 0.5 0.1
v 0.3 0.5 0.1
v 0.4 0.5 0.1
v -0.4 0.5 -1.49012e-08
v -0.3 0.5 -1.49012e-08
v 0.3 0.5 -1.49012e-08
v 0.4 0.5 -1.49012e-08
v -0.4 0.5 -0.2
v -0.3 0.5 -0.2
v 0.3 0.5 -0.2
v 0.4 0.5 -0.2
v -0.4 0.5 -0.3
v -0.3 0.5 -0.3
v 0.3 0.5 -0.3
v 0.4 0.5 -0.3
v -0.1 0.7 0.1
v 0 0.7 0.1
v 0.1 0.7 0.1
v -0.1 0.7 -1.49012e-08
v 0 0.7 -1.49012e-08
v 0.1 0.7 -1.49012e-08
v -0.1 0.7 -0.2
v 0.1 0.7 -0.2
v -0.1 0.7 -0.3
v 0.1 0.7 -0.3
v -0.4 0.8 0.1
v -0.3 0.8 0.1
v -0.2 0.8 0.1
v -0.1 0.8 0.1
v 0.1 0.8 0.1
v 0.2 0.8 0.1
v 0.3 0.8 0.1
v 0.4 0.8 0.1
v -0.4 0.8 -1.49012e-08
v -0.3 0.8 -1.49012e-08
v -0.2 0.8 -1.49012e-08
v -0.1 0.8 -1.49012e-08
v 0.1 0.8 -1.49012e-08
v 0.2 0.8 -1.49012e-08
v 0.3 0.8 -1.49012e-08
v 0.4 0.8 -1.49012e-08
v -0.1 0.8 -0.1
v -0.4 0.8 -0.2
v -0.3 0.8 -0.2
v -0.2 0.8 -0.2
v -0.1 0.8 -0.2
v 0.1 0.8 -0.2
v 0.2 0.8 -0.2
v 0.3 0.8 -0.2
v 0.4 0.8 -0.2
v -0.4 0.8 -0.3
v -0.3 0.8 -0.3
v -0.2 0.8 -0.3
v -0.1 0.8 -0.3
v 0.1 0.8 -0.3
v 0.2 0.8 -0.3
v 0.3 0.8 -0.3
v 0.4 0.8 -0.3
v -0.3 0.9 0.1
v -0.2 0.9 0.1
v 0.2 0.9 0.1
v 0.3 0.9 0.1
v -0.5 0.9 -1.49012e-08
v -0.4 0.9 -1.49012e-08
v -0.3 0.9 -1.49012e-08
v -0.2 0.9 -1.49012e-08
v -0.1 0.9 -1.49012e-08
v 0.1 0.9 -1.49012e-08
v 0.2 0.9 -1.49012e-08
v 0.3 0.9 -1.49012e-08
v 0.4 0.9 -1.49012e-08
v 0.5 0.9 -1.49012e-08
v -0.2 0.9 -0.1
v -0.1 0.9 -0.1
v 0.4 0.9 -0.1
v 0.5 0.9 -0.1
v -0.5 0.9 -0.2
v -0.4 0.9 -0.2
v -0.3 0.9 -0.2
v -0.2 0.9 -0.2
v -0.1 0.9 -0.2
v 0.1 0.9 -0.2
v 0.2 0.9 -0.2
v 0.3 0.9 -0.2
v 0.4 0.9 -0.2
v 0.5 0.9 -0.2
v -0.3 0.9 -0.3
v -0.2 0.9 -0.3
v 0.2 0.9 -0.3
v 0.3 0.9 -0.3
v -0.4 1 -1.49012e-08
v -0.2 1 -1.49012e-08
v 0.2 1 -1.49012e-08
v 0.4 1 -1.49012e-08
v -0.3 1 -0.1
v -0.2 1 -0.1
v 0.3 1 -0.1
v 0.4 1 -0.1
v -0.4 1 -0.2
v -0.3 1 -0.2
v -0.2 1 -0.2
v 0.2 1 -0.2
v 0.3 1 -0.2
v 0.4 1 -0.2

# faces
f 3/1/1 2/1/1 1/1/1
f 4/1/1 2/1/1 3/1/1
f 7/1/1 6/1/1 5/1/1
f 8/1/1 6/1/1 7/1/1
f 13/3/1 10/3/1 9/3/1
f 14/3/1 10/3/1 13/3/1
f 15/2/1 12/2/1 11/2/1
f 16/2/1 12/2/1 15/2/1
f 19/1/1 18/1/1 17/1/1
f 20/1/1 18/1/1 19/1/1
f 24/1/1 22/1/1 21/1/1
f 25/1/1 22/1/1 24/1/1
f 27/1/1 24/1/1 23/1/1
f 28/1/1 24/1/1 27/1/1
f 29/2/1 28/2/1 27/2/1
f 30/2/1 28/2/1 29/2/1
f 31/3/1 26/3/1 25/3/1
f 32/3/1 26/3/1 31/3/1
f 37/3/1 34/3/1 33/3/1
f 38/3/1 34/3/1 37/3/1
f 39/1/1 36/1/1 35/1/1
f 40/1/1 36/1/1 39/1/1
f 44/1/1 42/1/1 41/1/1
f 45/1/1 42/1/1 44/1/1
f 47/1/1 44/1/1 43/1/1
f 48/1/1 44/1/1 47/1/1
f 49/3/1 46/3/1 45/3/1
f 50/3/1 46/3/1 49/3/1
f 54/1/1 52/1/1 51/1/1
f 55/1/1 52/1/1 54/1/1
f 57/1/1 54/1/1 53/1/1
f 58/1/1 54/1/1 57/1/1
f 59/1/1 56/1/1 55/1/1
f 60/1/1 56/1/1 59/1/1
f 65/2/1 62/2/1 61/2/1
f 66/2/1 62/2/1 65/2/1
f 67/1/1 64/1/1 63/1/1
f 68/1/1 64/1/1 67/1/1
f 69/1/1 67/1/1 66/1/1
f 70/1/1 67/1/1 69/1/1
f 75/1/1 72/1/1 71/1/1
f 76/1/1 72/1/1 75/1/1
f 77/2/1 74/2/1 73/2/1
f 78/2/1 74/2/1 77/2/1
f 79/1/1 77/1/1 76/1/1
f 80/1/1 77/1/1 79/1/1
f 81/3/2 82/3/2 85/3/2
f 85/3/2 82/3/2 86/3/2
f 83/1/2 84/1/2 88/1/2
f 88/1/2 84/1/2 89/1/2
f 86/1/2 87/1/2 90/1/2
f 87/3/2 88/3/2 91/3/2
f 90/1/2 87/1/2 91/1/2
f 91/3/2 88/3/2 92/3/2
f 93/3/2 94/3/2 97/3/2
f 97/3/2 94/3/2 98/3/2
f 95/1/2 96/1/2 100/1/2
f 100/1/2 96/1/2 101/1/2
f 98/3/2 99/3/2 102/3/2
f 99/1/2 100/1/2 103/1/2
f 102/3/2 99/3/2 103/3/2
f 103/1/2 100/1/2 104/1/2
f 105/3/2 106/3/2 109/3/2
f 106/1/2 107/1/2 110/1/2
f 109/3/2 106/3/2 110/3/2
f 110/1/2 107/1/2 111/1/2
f 108/3/2 109/3/2 113/3/2
f 113/3/2 109/3/2 114/3/2
f 111/1/2 112/1/2 115/1/2
f 115/1/2 112/1/2 116/1/2
f 117/1/2 118/1/2 120/1/2
f 120/1/2 118/1/2 121/1/2
f 121/1/2 118/1/2 122/1/2
f 119/2/2 120/2/2 124/2/2
f 124/2/2 120/2/2 125/2/2
f 124/1/2 125/1/2 126/1/2
f 126/1/2 125/1/2 127/1/2
f 122/2/2 123/2/2 128/2/2
f 128/2/2 123/2/2 129/2/2
f 130/1/2 131/1/2 133/1/2
f 131/2/2 132/2/2 134/2/2
f 133/1/2 131/1/2 134/1/2
f 134/2/2 132/2/2 135/2/2
f 136/1/2 137/1/2 140/1/2
f 140/1/2 137/1/2 141/1/2
f 138/1/2 139/1/2 142/1/2
f 142/1/2 139/1/2 143/1/2
f 144/1/2 145/1/2 148/1/2
f 148/1/2 145/1/2 149/1/2
f 146/2/2 147/2/2 150/2/2
f 150/2/2 147/2/2 151/2/2
f 152/1/2 153/1/2 154/1/2
f 154/1/2 153/1/2 155/1/2
f 155/1/2 153/1/2 156/1/2
f 159/1/2 160/1/2 161/1/2
f 161/1/2 160/1/2 162/1/2
f 157/3/2 158/3/2 163/3/2
f 163/3/2 158/3/2 164/3/2
f 161/3/2 162/3/2 165/3/2
f 165/3/2 162/3/2 166/3/2
f 163/1/2 164/1/2 167/1/2
f 167/1/2 164/1/2 168/1/2
f 165/1/2 166/1/2 169/1/2
f 169/1/2 166/1/2 170/1/2
f 171/1/2 172/1/2 174/1/2
f 172/3/2 173/3/2 175/3/2
f 174/1/2 172/1/2 175/1/2
f 175/3/2 173/3/2 176/3/2
f 177/1/2 178/1/2 180/1/2
f 178/2/2 179/2/2 181/2/2
f 180/1/2 178/1/2 181/1/2
f 181/2/2 179/2/2 182/2/2
f 187/3/3 184/3/3 183/3/3
f 188/3/3 184/3/3 187/3/3
f 191/1/3 186/1/3 185/1/3
f 192/3/3 189/3/3 188/3/3
f 192/3/3 188/3/3 187/3/3
f 193/3/3 189/3/3 192/3/3
f 195/1/3 191/1/3 190/1/3
f 196/2/3 187/2/3 186/2/3
f 196/1/3 186/1/3 191/1/3
f 196/1/3 191/1/3 195/1/3
f 197/3/3 192/3/3 187/3/3
f 197/2/3 187/2/3 196/2/3
f 198/3/3 192/3/3 197/3/3
f 199/3/3 192/3/3 198/3/3
f 200/1/3 195/1/3 194/1/3
f 201/3/3 196/3/3 195/3/3
f 201/1/3 195/1/3 200/1/3
f 202/2/3 197/2/3 196/2/3
f 202/3/3 196/3/3 201/3/3
f 202/2/3 198/2/3 197/2/3
f 203/2/3 198/2/3 202/2/3
f 204/3/3 201/3/3 200/3/3
f 204/3/3 202/3/3 201/3/3
f 205/3/3 202/3/3 204/3/3
f 206/3/3 202/3/3 205/3/3
f 207/1/3 203/1/3 202/1/3
f 207/3/3 202/3/3 206/3/3
f 208/1/3 203/1/3 207/1/3
f 209/1/3 203/1/3 208/1/3
f 211/2/3 206/2/3 205/2/3
f 212/1/3 208/1/3 207/1/3
f 212/2/3 206/2/3 211/2/3
f 212/1/3 207/1/3 206/1/3
f 213/1/3 208/1/3 212/1/3
f 214/2/3 209/2/3 208/2/3
f 214/2/3 210/2/3 209/2/3
f 216/1/3 208/1/3 213/1/3
f 217/1/3 208/1/3 216/1/3
f 218/2/3 214/2/3 208/2/3
f 218/1/3 208/1/3 217/1/3
f 219/2/3 214/2/3 218/2/3
f 220/1/3 215/1/3 214/1/3
f 220/2/3 214/2/3 219/2/3
f 221/1/3 215/1/3 220/1/3
f 222/3/3 219/3/3 218/3/3
f 222/3/3 218/3/3 217/3/3
f 223/1/3 220/1/3 219/1/3
f 223/3/3 219/3/3 222/3/3
f 224/1/3 220/1/3 223/1/3
f 228/1/3 226/1/3 225/1/3
f 229/1/3 226/1/3 228/1/3
f 230/1/3 226/1/3 229/1/3
f 231/1/3 226/1/3 230/1/3
f 234/1/3 228/1/3 227/1/3
f 234/1/3 229/1/3 228/1/3
f 235/1/3 229/1/3 234/1/3
f 236/1/3 229/1/3 235/1/3
f 237/3/3 231/3/3 230/3/3
f 238/1/3 232/1/3 231/1/3
f 238/3/3 231/3/3 237/3/3
f 240/1/3 234/1/3 233/1/3
f 241/1/3 234/1/3 240/1/3
f 243/1/3 232/1/3 238/1/3
f 244/1/3 232/1/3 243/1/3
f 246/1/3 240/1/3 239/1/3
f 247/1/3 240/1/3 246/1/3
f 249/3/3 243/3/3 242/3/3
f 250/3/3 243/3/3 249/3/3
f 251/1/3 246/1/3 245/1/3
f 252/1/3 246/1/3 251/1/3
f 253/1/3 249/1/3 248/1/3
f 254/3/3 252/3/3 251/3/3
f 255/3/3 252/3/3 254/3/3
f 257/1/3 249/1/3 253/1/3
f 258/1/3 249/1/3 257/1/3
f 260/1/3 256/1/3 255/1/3
f 261/1/3 256/1/3 260/1/3
f 264/1/3 259/1/3 258/1/3
f 265/1/3 259/1/3 264/1/3
f 267/1/3 263/1/3 262/1/3
f 267/1/3 262/1/3 261/1/3
f 268/1/3 263/1/3 267/1/3
f 269/1/3 263/1/3 268/1/3
f 272/1/3 266/1/3 265/1/3
f 273/1/3 270/1/3 269/1/3
f 273/1/3 269/1/3 268/1/3
f 274/1/3 270/1/3 273/1/3
f 275/1/3 270/1/3 274/1/3
f 277/1/3 272/1/3 271/1/3
f 278/1/3 266/1/3 272/1/3
f 278/1/3 272/1/3 277/1/3
f 279/1/3 266/1/3 278/1/3
f 280/1/3 276/1/3 275/1/3
f 280/1/3 277/1/3 276/1/3
f 280/1/3 278/1/3 277/1/3
f 280/1/3 275/1/3 274/1/3
f 281/1/3 278/1/3 280/1/3
f 282/1/4 283/1/4 285/1/4
f 285/1/4 283/1/4 286/1/4
f 286/1/4 283/1/4 287/1/4
f 287/1/4 283/1/4 288/1/4
f 284/1/4 285/1/4 291/1/4
f 285/1/4 286/1/4 291/1/4
f 291/1/4 286/1/4 292/1/4
f 287/1/4 288/1/4 293/1/4
f 288/1/4 289/1/4 293/1/4
f 293/1/4 289/1/4 294/1/4
f 294/1/4 289/1/4 295/1/4
f 290/1/4 291/1/4 297/1/4
f 297/1/4 291/1/4 298/1/4
f 294/3/4 295/3/4 300/3/4
f 300/3/4 295/3/4 301/3/4
f 296/1/4 297/1/4 303/1/4
f 303/1/4 297/1/4 304/1/4
f 299/1/4 300/1/4 306/1/4
f 306/1/4 300/1/4 307/1/4
f 302/1/4 303/1/4 308/1/4
f 308/1/4 303/1/4 309/1/4
f 305/1/4 306/1/4 311/1/4
f 311/1/4 306/1/4 312/1/4
f 309/1/4 310/1/4 314/1/4
f 314/1/4 310/1/4 315/1/4
f 312/1/4 313/1/4 317/1/4
f 317/1/4 313/1/4 318/1/4
f 315/2/4 316/2/4 320/2/4
f 320/2/4 316/2/4 321/2/4
f 321/2/4 316/2/4 322/2/4
f 318/1/4 319/1/4 325/1/4
f 325/1/4 319/1/4 326/1/4
f 322/1/4 323/1/4 327/1/4
f 321/1/4 322/1/4 327/1/4
f 327/1/4 323/1/4 328/1/4
f 328/1/4 323/1/4 329/1/4
f 324/2/4 325/2/4 332/2/4
f 325/3/4 326/3/4 333/3/4
f 332/2/4 325/2/4 333/2/4
f 333/3/4 326/3/4 334/3/4
f 331/2/4 332/2/4 335/2/4
f 330/2/4 331/2/4 335/2/4
f 332/2/4 333/2/4 335/2/4
f 329/2/4 330/2/4 335/2/4
f 328/2/4 329/2/4 335/2/4
f 335/2/4 333/2/4 336/2/4
f 337/2/4 338/2/4 340/2/4
f 340/2/4 338/2/4 341/2/4
f 339/3/4 340/3/4 344/3/4
f 340/2/4 341/2/4 345/2/4
f 344/3/4 340/3/4 345/3/4
f 341/1/4 342/1/4 346/1/4
f 345/2/4 341/2/4 346/2/4
f 346/1/4 342/1/4 347/1/4
f 344/3/4 345/3/4 349/3/4
f 343/3/4 344/3/4 349/3/4
f 349/3/4 345/3/4 350/3/4
f 345/1/4 346/1/4 351/1/4
f 350/3/4 345/3/4 351/3/4
f 351/1/4 346/1/4 352/1/4
f 352/1/4 346/1/4 353/1/4
f 353/1/4 346/1/4 354/1/4
f 349/1/4 350/1/4 355/1/4
f 348/1/4 349/1/4 355/1/4
f 350/2/4 351/2/4 356/2/4
f 355/1/4 350/1/4 356/1/4
f 351/2/4 352/2/4 356/2/4
f 348/1/4 355/1/4 357/1/4
f 355/2/4 356/2/4 358/2/4
f 357/1/4 355/1/4 358/1/4
f 356/2/4 352/2/4 359/2/4
f 358/2/4 356/2/4 359/2/4
f 352/1/4 353/1/4 360/1/4
f 359/2/4 352/2/4 360/2/4
f 360/1/4 353/1/4 361/1/4
f 358/2/4 359/2/4 363/2/4
f 359/1/4 360/1/4 364/1/4
f 363/2/4 359/2/4 364/2/4
f 364/1/4 360/1/4 365/1/4
f 360/2/4 361/2/4 366/2/4
f 365/1/4 360/1/4 366/1/4
f 361/1/4 362/1/4 367/1/4
f 366/2/4 361/2/4 367/2/4
f 367/1/4 362/1/4 368/1/4
f 364/1/4 365/1/4 370/1/4
f 365/3/4 366/3/4 371/3/4
f 370/1/4 365/1/4 371/1/4
f 366/3/4 367/3/4 371/3/4
f 371/3/4 367/3/4 372/3/4
f 367/1/4 368/1/4 373/1/4
f 368/2/4 369/2/4 373/2/4
f 373/2/4 369/2/4 374/2/4
f 371/1/4 372/1/4 375/1/4
f 372/3/4 367/3/4 376/3/4
f 375/1/4 372/1/4 376/1/4
f 367/1/4 373/1/4 377/1/4
f 376/3/4 367/3/4 377/3/4
f 377/1/4 373/1/4 378/1/4
f 382/1/5 380/1/5 379/1/5
f 382/3/5 381/3/5 380/3/5
f 383/3/5 381/3/5 382/3/5
f 384/1/5 382/1/5 379/1/5
f 384/1/5 383/1/5 382/1/5
f 385/1/5 383/1/5 384/1/5
f 390/1/5 387/1/5 386/1/5
f 391/3/5 388/3/5 387/3/5
f 391/1/5 387/1/5 390/1/5
f 392/3/5 388/3/5 391/3/5
f 394/1/5 393/1/5 392/1/5
f 395/1/5 390/1/5 389/1/5
f 396/1/5 390/1/5 395/1/5
f 397/1/5 393/1/5 394/1/5
f 398/1/5 393/1/5 397/1/5
f 399/1/5 397/1/5 396/1/5
f 400/1/5 397/1/5 399/1/5
f 406/1/5 402/1/5 401/1/5
f 407/1/5 402/1/5 406/1/5
f 408/2/5 404/2/5 403/2/5
f 409/2/5 404/2/5 408/2/5
f 411/1/5 410/1/5 409/1/5
f 412/1/5 410/1/5 411/1/5
f 413/1/5 406/1/5 405/1/5
f 414/1/5 406/1/5 413/1/5
f 417/2/5 412/2/5 411/2/5
f 418/2/5 412/2/5 417/2/5
f 419/3/5 415/3/5 414/3/5
f 420/3/5 415/3/5 419/3/5
f 421/2/5 417/2/5 416/2/5
f 422/2/5 417/2/5 421/2/5
f 426/1/5 424/1/5 423/1/5
f 427/1/5 424/1/5 426/1/5
f 430/1/5 429/1/5 428/1/5
f 431/1/5 426/1/5 425/1/5
f 432/1/5 426/1/5 431/1/5
f 434/1/5 429/1/5 430/1/5
f 435/1/5 429/1/5 434/1/5
f 436/3/5 433/3/5 432/3/5
f 437/3/5 433/3/5 436/3/5
f 442/1/5 439/1/5 438/1/5
f 443/1/5 439/1/5 442/1/5
f 446/1/5 445/1/5 444/1/5
f 447/1/5 445/1/5 446/1/5
f 448/1/5 441/1/5 440/1/5
f 449/1/5 441/1/5 448/1/5
f 452/2/5 447/2/5 446/2/5
f 453/2/5 447/2/5 452/2/5
f 454/1/5 451/1/5 450/1/5
f 455/1/5 451/1/5 454/1/5
f 460/3/5 457/3/5 456/3/5
f 461/3/5 457/3/5 460/3/5
f 462/3/5 459/3/5 458/3/5
f 463/3/5 459/3/5 462/3/5
f 468/2/5 465/2/5 464/2/5
f 469/2/5 465/2/5 468/2/5
f 470/1/5 467/1/5 466/1/5
f 471/1/5 467/1/5 470/1/5
f 472/2/6 473/2/6 475/2/6
f 473/1/6 474/1/6 476/1/6
f 475/2/6 473/2/6 476/2/6
f 476/1/6 474/1/6 477/1/6
f 478/1/6 479/1/6 480/1/6
f 480/1/6 479/1/6 481/1/6
f 482/3/6 483/3/6 490/3/6
f 490/3/6 483/3/6 491/3/6
f 484/3/6 485/3/6 492/3/6
f 492/3/6 485/3/6 493/3/6
f 486/2/6 487/2/6 494/2/6
f 494/2/6 487/2/6 495/2/6
f 488/1/6 489/1/6 496/1/6
f 496/1/6 489/1/6 497/1/6
f 493/1/6 494/1/6 498/1/6
f 498/1/6 494/1/6 502/1/6
f 502/1/6 494/1/6 503/1/6
f 499/2/6 500/2/6 507/2/6
f 507/2/6 500/2/6 508/2/6
f 501/1/6 502/1/6 509/1/6
f 509/1/6 502/1/6 510/1/6
f 503/1/6 504/1/6 511/1/6
f 511/1/6 504/1/6 512/1/6
f 505/1/6 506/1/6 513/1/6
f 513/1/6 506/1/6 514/1/6
f 515/3/6 516/3/6 521/3/6
f 521/3/6 516/3/6 522/3/6
f 517/1/6 518/1/6 525/1/6
f 525/1/6 518/1/6 526/1/6
f 522/3/6 523/3/6 529/3/6
f 529/3/6 523/3/6 530/3/6
f 527/1/6 528/1/6 531/1/6
f 531/1/6 528/1/6 532/1/6
f 519/1/6 520/1/6 533/1/6
f 533/1/6 520/1/6 534/1/6
f 529/1/6 530/1/6 536/1/6
f 536/1/6 530/1/6 537/1/6
f 524/1/6 525/1/6 538/1/6
f 538/1/6 525/1/6 539/1/6
f 531/2/6 532/2/6 541/2/6
f 541/2/6 532/2/6 542/2/6
f 535/1/6 536/1/6 543/1/6
f 543/1/6 536/1/6 544/1/6
f 539/2/6 540/2/6 545/2/6
f 545/2/6 540/2/6 546/2/6
f 547/1/6 548/1/6 551/1/6
f 551/1/6 548/1/6 552/1/6
f 549/1/6 550/1/6 553/1/6
f 553/1/6 550/1/6 554/1/6
f 547/1/6 551/1/6 555/1/6
f 551/3/6 552/3/6 556/3/6
f 555/1/6 551/1/6 556/1/6
f 556/3/6 552/3/6 557/3/6
f 549/1/6 553/1/6 558/1/6
f 553/3/6 554/3/6 559/3/6
f 558/1/6 553/1/6 559/1/6
f 559/3/6 554/3/6 560/3/6
